<svg width="90" height="56" xmlns="http://www.w3.org/2000/svg"><g fill-rule="nonzero" fill="none"><path d="M33.182 13V3.28h3.34V.316H26.114V3.28h3.34V13h3.727zm9.34 0V8.096h4.465V13h3.727V.317h-3.727v4.817h-4.465V.317h-3.726V13h3.726zm19.897 0v-2.962h-5.22V8h4.895V5.327h-4.896V3.28h5.22V.317h-8.946V13h8.947z" fill="#FFF"/><path d="M22.548 34v-4.904h4.465V34h3.726V21.317h-3.726v4.817h-4.465v-4.817H18.82V34h3.727zm17.031.22c3.92 0 6.39-2.505 6.39-6.557 0-4.052-2.47-6.565-6.39-6.565-3.92 0-6.39 2.513-6.39 6.565 0 4.052 2.461 6.557 6.39 6.557zm0-2.971c-1.564 0-2.593-1.397-2.593-3.586 0-2.197 1.037-3.595 2.593-3.595s2.593 1.398 2.593 3.595c0 2.189-1.028 3.586-2.593 3.586zM52.146 34v-3.463h1.81c2.962 0 4.975-1.802 4.975-4.597 0-2.82-1.899-4.623-4.72-4.623h-5.792V34h3.727zm1.045-6.214h-1.045v-3.665h1.072c1.213 0 1.95.624 1.95 1.828 0 1.213-.737 1.837-1.977 1.837zM70.196 34v-2.962h-5.22V29h4.895v-2.672h-4.895V24.28h5.22v-2.962H61.25V34h8.947z" fill="#FFCD05"/><path d="M4.01 55v-3.463h1.81c2.963 0 4.975-1.802 4.975-4.597 0-2.82-1.898-4.623-4.72-4.623H.285V55H4.01zm1.046-6.214H4.01v-3.665h1.073c1.212 0 1.95.624 1.95 1.828 0 1.213-.738 1.837-1.977 1.837zM16.84 55v-4.254h1.222L20.066 55h4.166l-2.408-4.808c1.327-.632 2.048-2.074 2.048-3.568 0-2.716-1.74-4.307-5.124-4.307h-5.634V55h3.726zm1.538-6.715H16.84v-3.217h1.547c1.002 0 1.679.677 1.679 1.618 0 .958-.642 1.6-1.688 1.6zm14.079 6.935c3.92 0 6.39-2.505 6.39-6.557 0-4.052-2.47-6.565-6.39-6.565-3.92 0-6.39 2.513-6.39 6.565 0 4.052 2.46 6.557 6.39 6.557zm0-2.971c-1.565 0-2.593-1.397-2.593-3.586 0-2.197 1.037-3.595 2.593-3.595 1.555 0 2.592 1.398 2.592 3.595 0 2.189-1.028 3.586-2.592 3.586zm13.128 2.97c3.085 0 4.931-1.643 4.931-4.622v-8.28H46.79v8.253c0 1.002-.44 1.53-1.257 1.53-.853 0-1.371-.598-1.371-1.591h-3.569c0 2.935 1.916 4.71 4.992 4.71zM62.415 55v-2.962h-5.221V50h4.895v-2.672h-4.895V45.28h5.22v-2.962h-8.947V55h8.948zm8.725.22c3.42 0 5.889-2.171 5.906-5.335h-3.568c-.114 1.468-1.046 2.408-2.33 2.408-1.546 0-2.504-1.354-2.504-3.647 0-2.268.967-3.622 2.496-3.622 1.292 0 2.233.958 2.32 2.4h3.569c-.009-3.147-2.54-5.326-5.889-5.326-3.876 0-6.293 2.373-6.293 6.556 0 4.184 2.408 6.566 6.293 6.566zM85.86 55v-9.72h3.34v-2.963H78.793v2.962h3.34V55h3.727z" fill="#FFF"/></g></svg>