<svg width="96" height="14" xmlns="http://www.w3.org/2000/svg"><g fill-rule="nonzero" fill="none"><path d="M7.462 13V3.28h3.34V.316H.396V3.28h3.34V13h3.726zm9.34 0V8.096h4.466V13h3.726V.317h-3.726v4.817h-4.465V.317h-3.727V13h3.727zM36.7 13v-2.962h-5.22V8h4.895V5.327h-4.895V3.28h5.22V.317h-8.947V13h8.947z" fill="#FFF"/><path d="M47.594 13V8.096h4.465V13h3.726V.317H52.06v4.817h-4.465V.317h-3.727V13h3.727zm17.031.22c3.92 0 6.39-2.505 6.39-6.557 0-4.052-2.47-6.565-6.39-6.565-3.92 0-6.39 2.513-6.39 6.565 0 4.052 2.461 6.557 6.39 6.557zm0-2.971c-1.564 0-2.593-1.397-2.593-3.586 0-2.197 1.037-3.595 2.593-3.595s2.593 1.398 2.593 3.595c0 2.189-1.029 3.586-2.593 3.586zM77.191 13V9.537h1.811c2.962 0 4.975-1.802 4.975-4.597 0-2.82-1.899-4.623-4.72-4.623h-5.792V13h3.726zm1.046-6.214h-1.046V3.121h1.073c1.213 0 1.95.624 1.95 1.828 0 1.213-.737 1.837-1.977 1.837zM95.242 13v-2.962h-5.22V8h4.895V5.327h-4.896V3.28h5.221V.317h-8.947V13h8.947z" fill="#FFCD05"/></g></svg>