<svg xmlns="http://www.w3.org/2000/svg" xmlns:xlink="http://www.w3.org/1999/xlink" width="90" height="55" version="1.1" viewBox="0 0 90 55"><title>THE HOPE PROJECT Copy 2</title><desc>Created with Sketch.</desc><g id="Home" fill="none" fill-rule="evenodd" stroke="none" stroke-width="1"><g id="Home-page" fill-rule="nonzero" transform="translate(-805.000000, -143.000000)"><g id="top-section"><g id="header"><g id="THE-HOPE-PROJECT-Copy-2" transform="translate(805.283691, 143.000000)"><path id="THE" fill="#111518" d="M32.8979492,12.6826172 L32.8979492,2.96191406 L36.237793,2.96191406 L36.237793,0 L25.831543,0 L25.831543,2.96191406 L29.1713867,2.96191406 L29.1713867,12.6826172 L32.8979492,12.6826172 Z M42.2387695,12.6826172 L42.2387695,7.77832031 L46.7036133,7.77832031 L46.7036133,12.6826172 L50.4301758,12.6826172 L50.4301758,0 L46.7036133,0 L46.7036133,4.81640625 L42.2387695,4.81640625 L42.2387695,0 L38.512207,0 L38.512207,12.6826172 L42.2387695,12.6826172 Z M62.1352539,12.6826172 L62.1352539,9.72070312 L56.9145508,9.72070312 L56.9145508,7.68164062 L61.8100586,7.68164062 L61.8100586,5.00976562 L56.9145508,5.00976562 L56.9145508,2.96191406 L62.1352539,2.96191406 L62.1352539,0 L53.1879883,0 L53.1879883,12.6826172 L62.1352539,12.6826172 Z"/><path id="HOPE" fill="#FFCD05" d="M22.2641602,33.6826172 L22.2641602,28.7783203 L26.7290039,28.7783203 L26.7290039,33.6826172 L30.4555664,33.6826172 L30.4555664,21 L26.7290039,21 L26.7290039,25.8164062 L22.2641602,25.8164062 L22.2641602,21 L18.5375977,21 L18.5375977,33.6826172 L22.2641602,33.6826172 Z M39.2954102,33.9023438 C43.215332,33.9023438 45.6850586,31.3974609 45.6850586,27.3457031 C45.6850586,23.2939453 43.215332,20.7802734 39.2954102,20.7802734 C35.3754883,20.7802734 32.9057617,23.2939453 32.9057617,27.3457031 C32.9057617,31.3974609 35.3666992,33.9023438 39.2954102,33.9023438 Z M39.2954102,30.9316406 C37.730957,30.9316406 36.7026367,29.5341797 36.7026367,27.3457031 C36.7026367,25.1484375 37.7397461,23.7509766 39.2954102,23.7509766 C40.8510742,23.7509766 41.8881836,25.1484375 41.8881836,27.3457031 C41.8881836,29.5341797 40.8598633,30.9316406 39.2954102,30.9316406 Z M51.8618164,33.6826172 L51.8618164,30.2197266 L53.6723633,30.2197266 C56.6342773,30.2197266 58.6469727,28.4179688 58.6469727,25.6230469 C58.6469727,22.8017578 56.7485352,21 53.9272461,21 L48.1352539,21 L48.1352539,33.6826172 L51.8618164,33.6826172 Z M52.9077148,27.46875 L51.8618164,27.46875 L51.8618164,23.8037109 L52.934082,23.8037109 C54.1469727,23.8037109 54.8852539,24.4277344 54.8852539,25.6318359 C54.8852539,26.8447266 54.1469727,27.46875 52.9077148,27.46875 Z M69.9125977,33.6826172 L69.9125977,30.7207031 L64.6918945,30.7207031 L64.6918945,28.6816406 L69.5874023,28.6816406 L69.5874023,26.0097656 L64.6918945,26.0097656 L64.6918945,23.9619141 L69.9125977,23.9619141 L69.9125977,21 L60.965332,21 L60.965332,33.6826172 L69.9125977,33.6826172 Z"/><path id="PROJECT" fill="#111518" d="M3.7265625,54.6826172 L3.7265625,51.2197266 L5.53710938,51.2197266 C8.49902344,51.2197266 10.5117188,49.4179688 10.5117188,46.6230469 C10.5117188,43.8017578 8.61328125,42 5.79199219,42 L0,42 L0,54.6826172 L3.7265625,54.6826172 Z M4.77246094,48.46875 L3.7265625,48.46875 L3.7265625,44.8037109 L4.79882812,44.8037109 C6.01171875,44.8037109 6.75,45.4277344 6.75,46.6318359 C6.75,47.8447266 6.01171875,48.46875 4.77246094,48.46875 Z M16.5566406,54.6826172 L16.5566406,50.4287109 L17.7783203,50.4287109 L19.7822266,54.6826172 L23.9482422,54.6826172 L21.5400391,49.875 C22.8671875,49.2421875 23.5878906,47.8007812 23.5878906,46.3066406 C23.5878906,43.5908203 21.8476562,42 18.4638672,42 L12.8300781,42 L12.8300781,54.6826172 L16.5566406,54.6826172 Z M18.0947266,47.9677734 L16.5566406,47.9677734 L16.5566406,44.7509766 L18.1035156,44.7509766 C19.1054688,44.7509766 19.7822266,45.4277344 19.7822266,46.3681641 C19.7822266,47.3261719 19.140625,47.9677734 18.0947266,47.9677734 Z M32.1728516,54.9023438 C36.0927734,54.9023438 38.5625,52.3974609 38.5625,48.3457031 C38.5625,44.2939453 36.0927734,41.7802734 32.1728516,41.7802734 C28.2529297,41.7802734 25.7832031,44.2939453 25.7832031,48.3457031 C25.7832031,52.3974609 28.2441406,54.9023438 32.1728516,54.9023438 Z M32.1728516,51.9316406 C30.6083984,51.9316406 29.5800781,50.5341797 29.5800781,48.3457031 C29.5800781,46.1484375 30.6171875,44.7509766 32.1728516,44.7509766 C33.7285156,44.7509766 34.765625,46.1484375 34.765625,48.3457031 C34.765625,50.5341797 33.7373047,51.9316406 32.1728516,51.9316406 Z M45.3017578,54.9023438 C48.3867188,54.9023438 50.2324219,53.2587891 50.2324219,50.2792969 L50.2324219,42 L46.5058594,42 L46.5058594,50.2529297 C46.5058594,51.2548828 46.0664062,51.7822266 45.2490234,51.7822266 C44.3964844,51.7822266 43.8779297,51.1845703 43.8779297,50.1914062 L40.3095703,50.1914062 C40.3095703,53.1269531 42.2255859,54.9023438 45.3017578,54.9023438 Z M62.1308594,54.6826172 L62.1308594,51.7207031 L56.9101562,51.7207031 L56.9101562,49.6816406 L61.8056641,49.6816406 L61.8056641,47.0097656 L56.9101562,47.0097656 L56.9101562,44.9619141 L62.1308594,44.9619141 L62.1308594,42 L53.1835938,42 L53.1835938,54.6826172 L62.1308594,54.6826172 Z M70.8564453,54.9023438 C74.2753906,54.9023438 76.7451172,52.7314453 76.7626953,49.5673828 L73.1943359,49.5673828 C73.0800781,51.0351562 72.1484375,51.9755859 70.8652344,51.9755859 C69.3183594,51.9755859 68.3603516,50.6220703 68.3603516,48.328125 C68.3603516,46.0605469 69.3271484,44.7070312 70.8564453,44.7070312 C72.1484375,44.7070312 73.0888672,45.6650391 73.1767578,47.1064453 L76.7451172,47.1064453 C76.7363281,43.9599609 74.2050781,41.7802734 70.8564453,41.7802734 C66.9804688,41.7802734 64.5634766,44.1533203 64.5634766,48.3369141 C64.5634766,52.5205078 66.9716797,54.9023438 70.8564453,54.9023438 Z M85.5761719,54.6826172 L85.5761719,44.9619141 L88.9160156,44.9619141 L88.9160156,42 L78.5097656,42 L78.5097656,44.9619141 L81.8496094,44.9619141 L81.8496094,54.6826172 L85.5761719,54.6826172 Z"/></g></g></g></g></g></svg>