<svg width="45" height="45" xmlns="http://www.w3.org/2000/svg"><g fill-rule="nonzero" fill="none"><path d="M43.929 19.286v-2.857H41.07c-3.142 0-5.714 2.571-5.714 5.714 0-3.143-2.571-5.714-5.714-5.714h-2.857v2.857c0 3.143 2.571 5.714 5.714 5.714H28.571c-1 0-1.785.786-1.785 1.786v1.071c0 3.143 2.571 5.714 5.714 5.714H28.571c-1 0-1.785.786-1.785 1.786v1.072c0 3.142 2.571 5.714 5.714 5.714h5.714c3.143 0 5.715-2.572 5.715-5.714v-1.072c0-1-.786-1.786-1.786-1.786H38.214c3.143 0 5.715-2.571 5.715-5.714v-1.071c0-1-.786-1.786-1.786-1.786H38.214c3.143 0 5.715-2.571 5.715-5.714z" fill="#FFCD05"/><path d="M23.929 30.964c-1.75-3.857-4.786-6.857-7.215-9.035 1.857-.215 3.75-.179 5.607.178a1.085 1.085 0 001.25-.857 1.085 1.085 0 00-.857-1.25 20.568 20.568 0 00-8.607.214 1.065 1.065 0 00-.786 1.286c.036.214.179.393.322.536l.428.357c2.536 2.214 6.036 5.286 7.929 9.428.179.393.571.643.964.643a.95.95 0 00.429-.107c.536-.25.786-.857.536-1.393zm.178 11.679a57.302 57.302 0 01-5.178.214c-5.286 0-9.393-.607-12.215-1.786C3.643 39.75 2.143 37.786 2.143 35c0-3.214 1.928-6.607 5.214-9.214 2.929 1.357 5.429 3.643 7.857 7.143.215.285.536.464.893.464.214 0 .429-.072.607-.179.5-.321.607-1 .286-1.5-2.821-4.107-5.821-6.678-9.429-8.178H7.5a1.037 1.037 0 00-.893.178C2.464 26.75 0 30.964 0 35c0 6.643 6.357 10 18.929 10 1.928 0 3.75-.071 5.392-.25.572-.071 1.036-.571.965-1.179-.072-.571-.607-1-1.179-.928zm6.964-29.786A1.052 1.052 0 0130 11.786V4.643c0-.607.464-1.072 1.071-1.072.608 0 1.072.465 1.072 1.072v7.143c0 .607-.464 1.071-1.072 1.071zm8.572 0a1.052 1.052 0 01-1.072-1.071V4.643c0-.607.465-1.072 1.072-1.072s1.071.465 1.071 1.072v7.143c0 .607-.464 1.071-1.071 1.071z" fill="#444B54"/><path d="M38.214 26.071A6.783 6.783 0 0045 19.286v-2.857c0-.608-.464-1.072-1.071-1.072H41.07a6.783 6.783 0 00-4.642 1.857V1.071C36.429.464 35.964 0 35.357 0s-1.071.464-1.071 1.071v16.143a6.783 6.783 0 00-4.643-1.857h-2.857c-.607 0-1.072.464-1.072 1.072v2.857A6.783 6.783 0 0032.5 26.07h1.786V32.5H32.5a4.634 4.634 0 01-4.643-4.643v-1.071c0-.607-.464-1.072-1.071-1.072s-1.072.465-1.072 1.072v1.071a6.783 6.783 0 006.786 6.786h1.786v6.428H32.5a4.634 4.634 0 01-4.643-4.642v-.715c0-.607-.464-1.071-1.071-1.071s-1.072.464-1.072 1.071v.715a6.783 6.783 0 006.786 6.785h1.786v.715c0 .607.464 1.071 1.071 1.071s1.072-.464 1.072-1.071v-.715h1.785A6.783 6.783 0 0045 36.43v-1.072c0-.607-.464-1.071-1.071-1.071-.608 0-1.072.464-1.072 1.071v1.072a4.634 4.634 0 01-4.643 4.642H36.43v-6.428h1.785A6.783 6.783 0 0045 27.857v-1.071c0-.607-.464-1.072-1.071-1.072-.608 0-1.072.465-1.072 1.072v1.071a4.634 4.634 0 01-4.643 4.643H36.43v-6.429h1.785zm2.857-8.571h1.786v1.786a4.634 4.634 0 01-4.643 4.643H36.43v-1.786A4.634 4.634 0 0141.07 17.5zm-13.214 1.786V17.5h1.786a4.634 4.634 0 014.643 4.643v1.786H32.5a4.634 4.634 0 01-4.643-4.643z" fill="#444B54"/></g></svg>