<svg xmlns="http://www.w3.org/2000/svg" xmlns:xlink="http://www.w3.org/1999/xlink" width="95" height="14" version="1.1" viewBox="0 0 95 14"><title>THE HOPE</title><desc>Created with Sketch.</desc><g id="Home" fill="none" fill-rule="evenodd" stroke="none" stroke-width="1"><g id="Home-page" fill-rule="nonzero" transform="translate(-960.000000, -171.000000)"><g id="top-section"><g id="header"><g id="THE-HOPE" transform="translate(960.000000, 171.000000)"><path id="THE" fill="#111518" d="M7.06640625,12.9023438 L7.06640625,3.18164062 L10.40625,3.18164062 L10.40625,0.219726562 L0,0.219726562 L0,3.18164062 L3.33984375,3.18164062 L3.33984375,12.9023438 L7.06640625,12.9023438 Z M16.4072266,12.9023438 L16.4072266,7.99804688 L20.8720703,7.99804688 L20.8720703,12.9023438 L24.5986328,12.9023438 L24.5986328,0.219726562 L20.8720703,0.219726562 L20.8720703,5.03613281 L16.4072266,5.03613281 L16.4072266,0.219726562 L12.6806641,0.219726562 L12.6806641,12.9023438 L16.4072266,12.9023438 Z M36.3037109,12.9023438 L36.3037109,9.94042969 L31.0830078,9.94042969 L31.0830078,7.90136719 L35.9785156,7.90136719 L35.9785156,5.22949219 L31.0830078,5.22949219 L31.0830078,3.18164062 L36.3037109,3.18164062 L36.3037109,0.219726562 L27.3564453,0.219726562 L27.3564453,12.9023438 L36.3037109,12.9023438 Z"/><path id="HOPE" fill="#FFCD05" d="M47.1982422,12.9023438 L47.1982422,7.99804688 L51.6630859,7.99804688 L51.6630859,12.9023438 L55.3896484,12.9023438 L55.3896484,0.219726562 L51.6630859,0.219726562 L51.6630859,5.03613281 L47.1982422,5.03613281 L47.1982422,0.219726562 L43.4716797,0.219726562 L43.4716797,12.9023438 L47.1982422,12.9023438 Z M64.2294922,13.1220703 C68.1494141,13.1220703 70.6191406,10.6171875 70.6191406,6.56542969 C70.6191406,2.51367188 68.1494141,0 64.2294922,0 C60.3095703,0 57.8398438,2.51367188 57.8398438,6.56542969 C57.8398438,10.6171875 60.3007812,13.1220703 64.2294922,13.1220703 Z M64.2294922,10.1513672 C62.6650391,10.1513672 61.6367188,8.75390625 61.6367188,6.56542969 C61.6367188,4.36816406 62.6738281,2.97070312 64.2294922,2.97070312 C65.7851562,2.97070312 66.8222656,4.36816406 66.8222656,6.56542969 C66.8222656,8.75390625 65.7939453,10.1513672 64.2294922,10.1513672 Z M76.7958984,12.9023438 L76.7958984,9.43945312 L78.6064453,9.43945312 C81.5683594,9.43945312 83.5810547,7.63769531 83.5810547,4.84277344 C83.5810547,2.02148438 81.6826172,0.219726562 78.8613281,0.219726562 L73.0693359,0.219726562 L73.0693359,12.9023438 L76.7958984,12.9023438 Z M77.8417969,6.68847656 L76.7958984,6.68847656 L76.7958984,3.0234375 L77.8681641,3.0234375 C79.0810547,3.0234375 79.8193359,3.64746094 79.8193359,4.8515625 C79.8193359,6.06445312 79.0810547,6.68847656 77.8417969,6.68847656 Z M94.8466797,12.9023438 L94.8466797,9.94042969 L89.6259766,9.94042969 L89.6259766,7.90136719 L94.5214844,7.90136719 L94.5214844,5.22949219 L89.6259766,5.22949219 L89.6259766,3.18164062 L94.8466797,3.18164062 L94.8466797,0.219726562 L85.8994141,0.219726562 L85.8994141,12.9023438 L94.8466797,12.9023438 Z"/></g></g></g></g></g></svg>