<svg width="42" height="45" xmlns="http://www.w3.org/2000/svg"><g fill-rule="nonzero" fill="none"><path d="M7.2 26.9c1 0 1.9.6 2.3 1.5h3.9c.7 0 6.2.2 8.8 3.2h5.2c1.7 0 3.2 1.3 3.4 3v.3c0 1.8-1.5 3.3-3.4 3.3H19c-.7 0-1.2-.5-1.2-1.2s.5-1.2 1.2-1.2h8.5c.3 0 .5-.1.7-.3 0-.1.1-.1.1-.2.1-.1.2-.3.2-.6 0-.5-.5-.8-1-.8h-5.8c-.4 0-.8-.2-1-.5-1.6-2.2-5.8-2.7-7.3-2.7H9.7v7.7l10.7 3.3s3.1.9 5.2 0 10.6-5.4 13.2-6.7c0 0 .4-.3.3-.4v-.1c-.1-.2-.2-.3-1.1-.1L33.4 36c-.6.2-1.3-.1-1.5-.8-.2-.6.1-1.3.8-1.5l4.6-1.6c2.6-.7 3.6.6 4 1.5.6 1.5-.2 2.9-1.4 3.5-3.5 1.9-11.5 6.1-13.6 6.9-1 .4-2.1.6-3.1.6-1.9 0-3.5-.5-3.6-.5L9.4 40.9c-.4.7-1.2 1.2-2.1 1.2H1.5c-.7 0-1.2-.5-1.2-1.2s.5-1.2 1.2-1.2h5.8V29.3H1.5c-.7 0-1.2-.5-1.2-1.2s.5-1.2 1.2-1.2h5.7z" fill="#454B54"/><path d="M18.6 1.2c2 0 3.9.8 5.2 2.2C25 2 26.9 1.2 28.9 1.2c3.8 0 6.8 2.8 6.8 6.4 0 2-1 3.8-2.5 5l-9.5 6.9-9.3-6.8c-1.6-1.2-2.7-3-2.7-5.1 0-.8.2-1.6.4-2.3.3-.9.9-1.6 1.5-2.3 1.4-1.1 3.1-1.8 5-1.8z" fill="#FFCD05"/><path d="M23.8 20.5c-.2 0-.4-.1-.6-.2L20.1 18c-.4-.3-.5-1-.2-1.4.3-.4 1-.5 1.4-.2l2.5 1.9 8.9-6.5c1.3-1 2.1-2.6 2.1-4.2 0-3-2.6-5.4-5.8-5.4-1.7 0-3.3.7-4.4 1.9-.2.2-.4.3-.7.3-.3 0-.5-.1-.7-.3-1.2-1.2-2.7-1.9-4.4-1.9-1.6 0-3.1.6-4.2 1.6-.6.5-1 1.2-1.3 1.9-.2.6-.4 1.2-.4 1.9 0 1.7.9 3.2 2.3 4.2l.2.2c.4.3.5 1 .2 1.4-.3.4-1 .5-1.4.2l-.2-.1c-1.9-1.4-3.1-3.6-3.1-5.9 0-.9.2-1.8.5-2.6.4-1 1-1.9 1.8-2.6C14.7 1 16.7.2 18.8.2c1.9 0 3.7.6 5.1 1.8C25.3.8 27.1.2 29.1.2c4.3 0 7.8 3.3 7.8 7.4 0 2.2-1.1 4.3-2.9 5.8l-9.5 6.9c-.3.1-.5.2-.7.2z" fill="#444B54"/></g></svg>