<svg width="37" height="45" xmlns="http://www.w3.org/2000/svg"><g fill-rule="nonzero" fill="none"><path d="M1.261 5.466v33.638a4.217 4.217 0 004.205 4.205h25.229a4.217 4.217 0 004.204-4.205V5.466a4.217 4.217 0 00-4.204-4.205H5.466a4.217 4.217 0 00-4.205 4.205z" fill="#FFCD05"/><path d="M1.261 5.466v33.638a4.217 4.217 0 004.205 4.205h25.229a4.217 4.217 0 004.204-4.205V18.08l-6.307-4.204V1.26H5.466a4.217 4.217 0 00-4.205 4.205z" fill="#FFF"/><path d="M20.183 15.431v4.751h4.709v4.205h-4.71v4.71h-4.204v-4.71h-4.751v-4.204h4.75l.001-4.752h4.205z" fill="#FFCD05"/><path d="M34.9 14.296a1.239 1.239 0 01-1.262-1.261V5.466a2.925 2.925 0 00-2.943-2.943H27.12a1.239 1.239 0 01-1.262-1.262C25.86.547 26.406 0 27.121 0h3.574a5.455 5.455 0 015.466 5.466v7.569c0 .714-.547 1.261-1.262 1.261z" fill="#454B54"/><path d="M30.695 44.57H5.466A5.455 5.455 0 010 39.104V5.466A5.455 5.455 0 015.466 0h23.126c.715 0 1.262.547 1.262 1.261v10.344c0 .967.504 1.892 1.303 2.439l2.565 1.724a5.495 5.495 0 012.439 4.54v18.796a5.455 5.455 0 01-5.466 5.466zM5.466 2.523a2.925 2.925 0 00-2.943 2.943v33.638a2.925 2.925 0 002.943 2.943h25.229a2.925 2.925 0 002.943-2.943V20.351c0-.967-.505-1.892-1.304-2.439l-2.564-1.724c-1.514-1.051-2.44-2.733-2.44-4.583V2.523H5.467z" fill="#454B54"/></g></svg>