<svg width="41" height="45" xmlns="http://www.w3.org/2000/svg"><g fill-rule="nonzero" fill="none"><path d="M5.017 43.61a3.87 3.87 0 003.86-3.859V16.595h-7.72v23.156a3.87 3.87 0 003.86 3.86z" fill="#FFF"/><path d="M39.751 39.751a3.87 3.87 0 01-3.86 3.86H5.018a3.87 3.87 0 003.86-3.86V20.455H39.75V39.75z" fill="#FFCD05"/><path d="M35.892 8.877H5.017a3.87 3.87 0 00-3.86 3.859v3.86-3.86a3.87 3.87 0 013.86-3.86 3.87 3.87 0 013.86 3.86v7.719H39.75v-7.72a3.87 3.87 0 00-3.86-3.858z" fill="#FFF"/><path d="M33.962 25.472c.656 0 1.158-.502 1.158-1.158v-2.702h4.631c.656 0 1.158-.501 1.158-1.157v-7.72a5.007 5.007 0 00-5.017-5.016H5.017A5.007 5.007 0 000 12.736V39.75a5.007 5.007 0 005.017 5.017h30.875a5.007 5.007 0 005.017-5.017V24.314c0-.656-.502-1.158-1.158-1.158-.656 0-1.158.502-1.158 1.158V39.75a2.685 2.685 0 01-2.701 2.702H9.262c.502-.772.772-1.698.772-2.702V24.314c0-.656-.501-1.158-1.157-1.158-.657 0-1.158.502-1.158 1.158V39.75a2.685 2.685 0 01-2.702 2.702 2.685 2.685 0 01-2.701-2.702V12.735a2.685 2.685 0 012.701-2.7 2.685 2.685 0 012.702 2.7v7.72c0 .656.501 1.157 1.158 1.157h4.63v2.702c0 .656.502 1.158 1.159 1.158.656 0 1.157-.502 1.157-1.158v-2.702h16.981v2.702c0 .656.502 1.158 1.158 1.158zm-18.139-6.175v-2.702c0-.656-.501-1.158-1.157-1.158-.657 0-1.158.502-1.158 1.158v2.702h-3.474v-6.561c0-1.004-.308-1.93-.772-2.702h26.63a2.685 2.685 0 012.701 2.702v6.56H35.12v-2.7c0-.657-.502-1.159-1.158-1.159-.656 0-1.158.502-1.158 1.158v2.702h-16.98z" fill="#444B54"/><path fill="#FFF" d="M14.666 30.103h19.296v7.719H14.666z"/><path d="M33.962 38.98H14.666a1.137 1.137 0 01-1.158-1.158v-7.72c0-.655.501-1.157 1.158-1.157h19.296c.656 0 1.158.502 1.158 1.158v7.719c0 .656-.502 1.157-1.158 1.157zm-18.139-2.316h16.981V31.26h-16.98v5.403zm7.333-30.489a1.137 1.137 0 01-1.158-1.158 2.685 2.685 0 00-2.701-2.701 2.685 2.685 0 00-2.702 2.701c0 .656-.502 1.158-1.158 1.158a1.137 1.137 0 01-1.157-1.158A5.007 5.007 0 0119.297 0a5.007 5.007 0 015.017 5.017c0 .656-.502 1.158-1.158 1.158z" fill="#444B54"/></g></svg>