<svg width="41" height="45" xmlns="http://www.w3.org/2000/svg"><g fill="none"><path d="M5.415 39.661c-2.44 0-4.347-2.136-4.08-4.538l.343-3.204A4.033 4.033 0 015.72 28.22h.877m27.229 0h.877c2.098 0 3.89 1.602 4.08 3.7l.344 3.203a4.09 4.09 0 01-4.08 4.538" fill="#FFCD05"/><path d="M31.233 43.856H9.191c-2.25 0-4.043-1.945-3.776-4.195L7.59 19.03c.648-6.483 6.102-11.403 12.623-11.403 6.521 0 11.974 4.92 12.623 11.365l2.173 20.63c.267 2.289-1.525 4.234-3.775 4.234z" fill="#FFCD05"/><path d="M35.008 39.661l-1.983-18.725c-.114-.953-.839-1.792-1.792-1.906a2.077 2.077 0 00-2.364 2.288c1.067 9.991-6.788 18.724-16.856 18.724H9.267c-.992 0-1.869.725-1.983 1.716-.115 1.145.8 2.098 1.907 2.098h22.042c.267 0 .572-.038.839-.076s.534-.153.763-.267c.229-.115.457-.23.686-.382.115-.076.19-.152.305-.228a3.83 3.83 0 00.916-1.259c.114-.229.19-.496.266-.763.039-.114.039-.267.077-.381 0-.153.038-.267.038-.42 0-.152-.076-.305-.115-.419z" fill="#FFF"/><path d="M10.792 40.042l.534-5.186c.496-4.576 4.31-8.161 8.886-8.161s8.352 3.432 8.847 7.97l.572 5.377H10.792z" fill="#FFF"/><path d="M38.86 42.712h-3.47c.381-.61.648-1.335.724-2.06a5.28 5.28 0 002.784-1.601 5.32 5.32 0 001.335-4.08l-.343-3.204c-.229-2.631-2.403-4.614-5.034-4.69l-.877-8.2c-.725-7.055-6.674-12.394-13.767-12.394-.648 0-1.144.496-1.144 1.144 0 .648.496 1.144 1.144 1.144 5.949 0 10.869 4.462 11.517 10.335l2.174 20.631a2.577 2.577 0 01-.687 2.06c-.496.572-1.22.877-1.983.877H9.191c-.763 0-1.488-.305-1.983-.877-.496-.572-.763-1.297-.687-2.06l2.174-20.631c.076-.725.229-1.45.42-2.136.19-.61-.153-1.258-.763-1.41-.61-.191-1.259.152-1.411.762a11.65 11.65 0 00-.496 2.555l-.877 8.2c-2.632.076-4.805 2.059-5.072 4.69L.153 34.97a5.32 5.32 0 001.334 4.08c.725.84 1.716 1.374 2.784 1.603a4.892 4.892 0 001.22 2.707 5.055 5.055 0 003.7 1.64H38.86c.648 0 1.144-.496 1.144-1.144 0-.648-.534-1.144-1.144-1.144zM3.203 37.525a2.998 2.998 0 01-.762-2.288l.343-3.203a2.996 2.996 0 012.555-2.631l-.953 8.961a3.332 3.332 0 01-1.183-.839zm34.437-5.53l.343 3.204a2.95 2.95 0 01-.763 2.288 2.967 2.967 0 01-1.182.801l-.953-8.924a2.996 2.996 0 012.555 2.632z" fill="#444B54"/><path d="M25.932 20.212h-7.627a1.124 1.124 0 01-1.144-1.144c0-.649.496-1.144 1.144-1.144h7.627c.649 0 1.144.495 1.144 1.144 0 .648-.495 1.144-1.144 1.144z" fill="#FFF"/><path d="M29.517 40.042c-.572 0-1.068-.42-1.144-1.03l-.458-4.232a7.733 7.733 0 00-7.703-6.941c-3.966 0-7.284 3.089-7.742 7.131A1.182 1.182 0 0111.212 36a1.182 1.182 0 01-1.03-1.258c.572-5.225 4.882-9.191 10.03-9.191s9.42 3.852 9.953 9l.458 4.233c.076.61-.381 1.182-1.03 1.258h-.076zm-18.61 0c-.076 0-.153 0-.229-.038-.076-.038-.153-.038-.229-.076-.076-.038-.152-.076-.19-.114-.039-.039-.115-.077-.191-.153a1.098 1.098 0 01-.343-.8c0-.077 0-.153.038-.23 0-.076.038-.152.076-.228.038-.077.076-.115.114-.191a.67.67 0 01.153-.19.655.655 0 01.19-.153c.077-.038.115-.077.191-.115.077-.038.153-.038.23-.076a.93.93 0 01.457 0c.076 0 .152.038.229.076a.834.834 0 01.19.115.654.654 0 01.19.152.825.825 0 01.153.19c.039.077.077.115.115.192.038.076.038.152.076.228 0 .077.038.153.038.23 0 .075 0 .152-.038.228a.542.542 0 01-.076.229c-.038.076-.076.152-.115.19a.67.67 0 01-.152.191.832.832 0 01-.19.153c-.077.038-.115.076-.191.114-.077.038-.153.038-.23.076h-.266z" fill="#444B54"/><circle fill="#FFF" cx="14.492" cy="19.068" r="1.144"/><path d="M9.763 1.22H30.66a2.295 2.295 0 012.288 2.288v5.645a2.295 2.295 0 01-2.288 2.288H9.763a2.295 2.295 0 01-2.288-2.288V3.508A2.27 2.27 0 019.763 1.22z" fill="#FFF"/><path d="M30.661.076H9.763A3.418 3.418 0 006.33 3.508v5.645a3.418 3.418 0 003.432 3.432h3.584v2.67c0 .648.496 1.143 1.145 1.143.648 0 1.144-.495 1.144-1.144v-2.67h9.152v2.67c0 .649.496 1.144 1.144 1.144.649 0 1.144-.495 1.144-1.144v-2.67h3.585a3.418 3.418 0 003.432-3.431V3.508A3.418 3.418 0 0030.661.076zm1.144 9.077c0 .648-.496 1.144-1.144 1.144h-3.585V7.703c0-.648-.495-1.144-1.144-1.144-.648 0-1.144.496-1.144 1.144v2.594h-9.152V7.703c0-.648-.496-1.144-1.144-1.144-.649 0-1.145.496-1.145 1.144v2.594H9.763a1.124 1.124 0 01-1.144-1.144V3.508c0-.648.495-1.144 1.144-1.144h3.584v1.45c0 .648.496 1.144 1.145 1.144.648 0 1.144-.496 1.144-1.144v-1.45h9.152v1.45c0 .648.496 1.144 1.144 1.144.649 0 1.144-.496 1.144-1.144v-1.45h3.585c.648 0 1.144.496 1.144 1.144v5.645z" fill="#444B54"/></g></svg>