<svg width="45" height="42" xmlns="http://www.w3.org/2000/svg"><g fill-rule="nonzero" fill="none"><path d="M11.743 8.037c-5.66 13.807-4.462 26.457 3.41 31.372-1.47.651-12.402-3.752-12.402-6.027-1.93-7.299-2.187-10.948-.77-10.948l4.247-6.766s5.88-11.328 5.515-7.63z" fill="#FFCD05"/><path d="M34.393 41.327a9.868 9.868 0 01-2.572-.322 1.369 1.369 0 01-1.01-1.653 1.369 1.369 0 011.653-1.01 7.71 7.71 0 007.44-2.066c2.616-2.618 3.03-6.75.963-9.873l-7.622-11.48c-.413-.642-.23-1.469.367-1.928.643-.413 1.47-.23 1.929.367l7.622 11.48c2.801 4.178 2.25 9.78-1.331 13.316-1.929 2.066-4.638 3.169-7.44 3.169zM15.153 41.327c-3.903 0-7.76-1.47-10.699-4.409C-.643 31.776-1.469 23.74 2.526 17.77L14.006.597A1.436 1.436 0 0115.152 0c.46 0 .873.23 1.148.597l11.48 17.173c3.995 5.97 3.214 14.051-1.883 19.102a15.084 15.084 0 01-10.745 4.455zm0-37.516L4.821 19.286c-3.26 4.913-2.617 11.48 1.562 15.658 4.821 4.821 12.719 4.821 17.54 0 4.179-4.179 4.822-10.745 1.562-15.658L15.153 3.81z" fill="#444B54"/></g></svg>